<?xml version="1.0" encoding="UTF-8" standalone="no"?>
<!DOCTYPE svg PUBLIC "-//W3C//DTD SVG 1.1//EN" "http://www.w3.org/Graphics/SVG/1.1/DTD/svg11.dtd">
<svg width="100%" height="100%" viewBox="0 0 160 39" version="1.1" xmlns="http://www.w3.org/2000/svg" xmlns:xlink="http://www.w3.org/1999/xlink" xml:space="preserve" xmlns:serif="http://www.serif.com/" style="fill-rule:evenodd;clip-rule:evenodd;stroke-linejoin:round;stroke-miterlimit:2;">
    <g transform="matrix(1,0,0,1,123.46,0.0265)">
        <path d="M9.627,36.157C8.15,35.829 7.549,34.79 8.041,33.477L10.995,25.655L23.576,25.655L26.147,33.477C26.639,35.063 25.655,35.938 24.561,36.157C24.014,36.267 22.701,36.431 21.443,36.54L21.443,38.783L36.54,38.783L36.54,36.54C35.774,36.485 34.626,36.157 34.024,35.938C32.93,35.61 32.328,34.954 31.836,33.477L20.075,0.164L17.504,0.164L4.704,33.477C4.212,34.844 3.61,35.61 2.516,35.938C1.915,36.157 0.766,36.485 0,36.54L0,38.783L12.745,38.783L12.745,36.54C11.487,36.431 10.12,36.267 9.627,36.157ZM17.778,7.877L22.646,22.756L12.089,22.756L17.778,7.877Z" style="fill:rgb(46,169,155);fill-rule:nonzero;"/>
    </g>
    <g transform="matrix(1,0,0,1,54.149,-0.329)">
        <path d="M57.436,3.61C62.195,3.61 64.055,4.759 65.422,10.01L67.391,10.01L67.391,0.875L36.321,0.875L36.321,10.01L38.291,10.01C39.658,4.759 41.518,3.61 46.277,3.61L49.012,3.61L49.012,33.477C49.012,35.009 48.574,35.938 47.535,36.212C46.769,36.431 45.347,36.485 44.308,36.54L44.308,38.783L59.405,38.783L59.405,36.54C57.819,36.376 56.944,36.431 56.178,36.212C55.138,35.938 54.701,35.009 54.701,33.477L54.701,3.61L57.436,3.61Z" style="fill:rgb(46,169,155);fill-rule:nonzero;"/>
    </g>
    <g transform="matrix(1,0,0,1,-111.371,-0.329)">
        <path d="M122.475,0.875L111.918,0.875L111.918,3.118C113.176,3.227 114.653,3.282 115.145,3.446C116.185,3.774 116.622,4.54 116.622,6.181L116.622,31.562C116.622,33.86 115.747,35.173 114.489,35.829C113.559,36.321 112.52,36.595 111.371,36.759L111.371,38.783L125.374,38.783L125.374,36.759C124.007,36.595 122.803,36.212 121.874,35.61C120.779,34.899 120.123,33.696 120.123,31.562L120.123,7.275L132.431,30.742L134.291,30.742L146.653,7.221L146.653,33.477C146.653,35.063 146.27,35.884 145.176,36.212C144.574,36.431 142.715,36.485 141.949,36.54L141.949,38.783L157.046,38.783L157.046,36.54C155.788,36.431 154.311,36.376 153.819,36.212C152.779,35.884 152.342,35.118 152.342,33.477L152.342,6.181C152.342,4.595 152.725,3.774 153.819,3.446C154.421,3.227 156.28,3.173 157.046,3.118L157.046,0.875L146.653,0.875L134.4,23.576L122.475,0.875Z" style="fill:rgb(46,169,155);fill-rule:nonzero;"/>
    </g>
    <g transform="matrix(1,0,0,1,-23,0.0265)">
        <path d="M91.309,0.164C101.967,0.164 110.619,8.816 110.619,19.474C110.619,30.131 101.967,38.783 91.309,38.783C80.652,38.783 72,30.131 72,19.474C72,8.816 80.652,0.164 91.309,0.164ZM91.309,12.386C95.221,12.386 98.397,15.562 98.397,19.474C98.397,23.385 95.221,26.561 91.309,26.561C87.397,26.561 84.221,23.385 84.221,19.474C84.221,15.562 87.397,12.386 91.309,12.386Z" style="fill:rgb(46,169,155);"/>
    </g>
</svg>
